<?xml version="1.0" encoding="utf-8"?>
<!-- Generator: Adobe Illustrator 15.0.0, SVG Export Plug-In . SVG Version: 6.00 Build 0)  -->
<!DOCTYPE svg PUBLIC "-//W3C//DTD SVG 1.1//EN" "http://www.w3.org/Graphics/SVG/1.1/DTD/svg11.dtd">
<svg version="1.1" id="Layer_1" xmlns="http://www.w3.org/2000/svg" xmlns:xlink="http://www.w3.org/1999/xlink" x="0px" y="0px"
	 width="595.28px" height="453.232px" viewBox="0 0 595.28 453.232" enable-background="new 0 0 595.28 453.232"
	 xml:space="preserve">
<path opacity="0.9" fill="#C6C6C6" d="M583.705,207.05c0,6.952-5.495,12.588-12.271,12.588H23.787
	c-6.775,0-12.271-5.636-12.271-12.588V21.184c0-6.952,5.495-12.588,12.271-12.588h547.646c6.776,0,12.271,5.636,12.271,12.588
	V207.05z"/>
<path opacity="0.9" fill="#C6C6C6" d="M583.705,429.511c0,6.953-5.495,12.588-12.271,12.588H23.787
	c-6.775,0-12.271-5.635-12.271-12.588V243.646c0-6.953,5.495-12.589,12.271-12.589h547.646c6.776,0,12.271,5.636,12.271,12.589
	V429.511z"/>
<path opacity="0.75" fill="#EDEDED" d="M441.694,32.637c0-6.645,5.372-12.032,12-12.032h105.4c6.628,0,12,5.387,12,12.032v386.034
	c0,6.645-5.372,12.031-12,12.031h-105.4c-6.628,0-12-5.387-12-12.031V32.637z"/>
<path fill="#FFFFFF" stroke="#000000" stroke-miterlimit="10" d="M556.217,180.82c0,6.627-5.373,12-12,12h-76
	c-6.627,0-12-5.373-12-12V73.929c0-6.627,5.373-12,12-12h76c6.627,0,12,5.373,12,12V180.82z"/>
<path opacity="0.75" fill="#EDEDED" d="M302.517,418.702c0,6.627,5.372,12,12,12h105.4c6.628,0,12-5.373,12-12V258.595
	c0-6.627-5.372-12-12-12h-105.4c-6.628,0-12,5.373-12,12V418.702z"/>
<path opacity="0.75" fill="#EDEDED" d="M307.064,239.208c-6.715-0.008-12,5.742-12,12l0.437,168.721
	c0,6.666-4.401,10.773-11.649,10.773H60.819c-6.627,0-12-5.373-12-12V32.604c0-6.627,5.373-12,12-12h359.098c6.628,0,12,5.373,12,12
	v196.49c0,5.334-4.732,10.113-10.733,10.113H307.064z"/>
<path fill="#FFFFFF" stroke="#000000" stroke-miterlimit="10" d="M328.2,192.82c-6.628,0-12-5.373-12-12v-76c0-6.627,5.372-12,12-12
	h76c6.627,0,12,5.373,12,12v76c0,6.627-5.373,12-12,12H328.2z"/>
<path fill="#FFFFFF" stroke="#000000" stroke-miterlimit="10" d="M468.217,357.597c-6.628,0-12-5.373-12-12v-76
	c0-6.627,5.372-12,12-12h76c6.627,0,12,5.373,12,12v76c0,6.627-5.373,12-12,12H468.217z"/>
<path fill="#FFFFFF" stroke="#000000" stroke-miterlimit="10" d="M188.028,192.82c-6.629,0-12-5.373-12-12v-76
	c0-6.627,5.371-12,12-12h76c6.627,0,12,5.373,12,12v76c0,6.627-5.373,12-12,12H188.028z"/>
<circle fill="#FFFFFF" stroke="#000000" stroke-miterlimit="10" cx="224.705" cy="306.743" r="50.855"/>
<circle fill="#FFFFFF" stroke="#000000" stroke-miterlimit="10" cx="366.2" cy="306.743" r="50.855"/>
<path fill="#FFFFFF" stroke="#000000" stroke-miterlimit="10" d="M153.85,180.82c0,6.627-5.373,12-12,12h-66
	c-6.627,0-12-5.373-12-12v-16.95c0-6.627,5.373-12,12-12h66c6.627,0,12,5.373,12,12V180.82z"/>
<path fill="#FFFFFF" stroke="#000000" stroke-miterlimit="10" d="M153.85,121.77c0,6.627-5.373,12-12,12h-66
	c-6.627,0-12-5.373-12-12v-16.95c0-6.627,5.373-12,12-12h66c6.627,0,12,5.373,12,12V121.77z"/>
<path fill="#FFFFFF" stroke="#000000" stroke-width="0.5" stroke-miterlimit="10" d="M267.731,159.724
	c0,6.142-4.979,11.121-11.121,11.121h-61.164c-6.143,0-11.121-4.979-11.121-11.121v-15.708c0-6.142,4.979-11.121,11.121-11.121
	h61.164c6.143,0,11.121,4.979,11.121,11.121V159.724z"/>
<path fill="#FFFFFF" stroke="#000000" stroke-width="0.5" stroke-miterlimit="10" d="M407.903,159.724
	c0,6.142-4.979,11.121-11.121,11.121h-61.164c-6.143,0-11.121-4.979-11.121-11.121v-15.708c0-6.142,4.979-11.121,11.121-11.121
	h61.164c6.143,0,11.121,4.979,11.121,11.121V159.724z"/>
<path fill="#FFFFFF" stroke="#000000" stroke-width="0.5" stroke-miterlimit="10" d="M547.92,174.292
	c0,6.142-4.979,11.121-11.121,11.121h-61.164c-6.143,0-11.121-4.979-11.121-11.121v-15.708c0-6.142,4.979-11.121,11.121-11.121
	h61.164c6.143,0,11.121,4.979,11.121,11.121V174.292z"/>
<path fill="#FFFFFF" stroke="#000000" stroke-width="0.5" stroke-miterlimit="10" d="M547.92,113.268
	c0,6.142-4.979,11.121-11.121,11.121h-61.164c-6.143,0-11.121-4.979-11.121-11.121V97.56c0-6.142,4.979-11.121,11.121-11.121h61.164
	c6.143,0,11.121,4.979,11.121,11.121V113.268z"/>
<g>
	<g>
		<line fill="none" stroke="#000000" stroke-width="2" stroke-miterlimit="10" x1="153.85" y1="113.294" x2="155.85" y2="113.294"/>
		
			<line fill="none" stroke="#000000" stroke-width="2" stroke-miterlimit="10" stroke-dasharray="4.6102,2.3051" x1="158.154" y1="113.294" x2="170.833" y2="113.294"/>
		
			<line fill="none" stroke="#000000" stroke-width="2" stroke-miterlimit="10" x1="171.985" y1="113.294" x2="173.985" y2="113.294"/>
	</g>
</g>
<g>
	<g>
		<line fill="none" stroke="#000000" stroke-width="2" stroke-miterlimit="10" x1="153.85" y1="172.345" x2="155.85" y2="172.345"/>
		
			<line fill="none" stroke="#000000" stroke-width="2" stroke-miterlimit="10" stroke-dasharray="4.6102,2.3051" x1="158.154" y1="172.345" x2="170.833" y2="172.345"/>
		
			<line fill="none" stroke="#000000" stroke-width="2" stroke-miterlimit="10" x1="171.985" y1="172.345" x2="173.985" y2="172.345"/>
	</g>
</g>
<g>
	<g>
		
			<line fill="none" stroke="#000000" stroke-width="2" stroke-miterlimit="10" x1="225.062" y1="225.208" x2="227.062" y2="225.208"/>
		
			<line fill="none" stroke="#000000" stroke-width="2" stroke-miterlimit="10" stroke-dasharray="3.9878,1.9939" x1="229.057" y1="225.208" x2="503.22" y2="225.208"/>
		
			<line fill="none" stroke="#000000" stroke-width="2" stroke-miterlimit="10" x1="504.217" y1="225.208" x2="506.217" y2="225.208"/>
	</g>
</g>
<g>
	<g>
		<line fill="none" stroke="#000000" stroke-width="2" stroke-miterlimit="10" x1="226.028" y1="192.82" x2="226.028" y2="194.82"/>
		
			<line fill="none" stroke="#000000" stroke-width="2" stroke-miterlimit="10" stroke-dasharray="3.8108,1.9054" x1="226.028" y1="196.725" x2="226.028" y2="252.935"/>
		
			<line fill="none" stroke="#000000" stroke-width="2" stroke-miterlimit="10" x1="226.028" y1="253.888" x2="226.028" y2="255.888"/>
	</g>
</g>
<g>
	<g>
		<line fill="none" stroke="#000000" stroke-width="2" stroke-miterlimit="10" x1="366.2" y1="192.82" x2="366.2" y2="194.82"/>
		
			<line fill="none" stroke="#000000" stroke-width="2" stroke-miterlimit="10" stroke-dasharray="3.8109,1.9054" x1="366.2" y1="196.725" x2="366.2" y2="252.936"/>
		<line fill="none" stroke="#000000" stroke-width="2" stroke-miterlimit="10" x1="366.2" y1="253.888" x2="366.2" y2="255.888"/>
	</g>
</g>
<g>
	<g>
		<line fill="none" stroke="#000000" stroke-width="2" stroke-miterlimit="10" x1="506.217" y1="192.82" x2="506.217" y2="194.82"/>
		
			<line fill="none" stroke="#000000" stroke-width="2" stroke-miterlimit="10" stroke-dasharray="3.6672,1.8336" x1="506.217" y1="196.653" x2="506.217" y2="223.241"/>
		
			<line fill="none" stroke="#000000" stroke-width="2" stroke-miterlimit="10" x1="506.217" y1="224.158" x2="506.217" y2="226.158"/>
	</g>
</g>
<text transform="matrix(0.99 0 0 1 175.0576 53.7803)"><tspan x="0" y="0" font-family="'Menlo'" font-size="12">cod5.hpc.uio.no</tspan><tspan x="0" y="14.4" font-family="'Menlo'" font-size="12">cod6.hpc.uio.no</tspan><tspan x="0" y="28.8" font-family="'Menlo'" font-size="12">cod7.hpc.uio.no</tspan></text>
<text transform="matrix(0.99 0 0 1 451.5137 375.7798)"><tspan x="0" y="0" font-family="'Menlo'" font-size="12">login.nird.\</tspan><tspan x="0" y="14.4" font-family="'Menlo'" font-size="12">sigma2.no</tspan></text>
<text transform="matrix(0.99 0 0 1 325.4248 71.3291)"><tspan x="0" y="0" font-family="'Menlo'" font-size="12">abel.uio.no</tspan><tspan x="0" y="12" font-family="'Menlo'" font-size="10">project cees</tspan></text>
<text transform="matrix(0.99 0 0 1 468.9062 53.7803)" font-family="'Menlo'" font-size="12">abel.uio.no</text>
<text transform="matrix(0.99 0 0 1 345.8125 148.5127)"><tspan x="0" y="0" font-family="'Menlo'" font-size="12">16 CPU</tspan><tspan x="-10.297" y="14.4" font-family="'Menlo'" font-size="12">64 GB RAM</tspan></text>
<text transform="matrix(0.99 0 0 1 468.6611 302.2422)"><tspan x="0" y="0" font-family="'Menlo'" font-size="12">150 TB disk</tspan><tspan x="3.432" y="14.4" font-family="'Menlo'" font-size="12">50 TB tape</tspan></text>
<text transform="matrix(0.99 0 0 1 340.7451 124.9688)" font-family="'Menlo'" font-size="10">256 nodes</text>
<text transform="matrix(0.99 0 0 1 480.7617 78.9678)" font-family="'Menlo'" font-size="10">650 nodes</text>
<text transform="matrix(0.99 0 0 1 486.4238 139.8198)" font-family="'Menlo'" font-size="10">8 nodes</text>
<text transform="matrix(0.99 0 0 1 186.6504 149.5127)"><tspan x="0" y="0" font-family="'Menlo'" font-size="12">32 (64) CPU</tspan><tspan x="3.432" y="14.4" font-family="'Menlo'" font-size="12">1.5 TB RAM</tspan></text>
<text transform="matrix(0.99 0 0 1 206.2358 124.9688)" font-family="'Menlo'" font-size="10">3 nodes</text>
<text transform="matrix(0.99 0 0 1 71.2939 116.8491)" font-family="'Menlo'" font-size="12">/node/work1</text>
<text transform="matrix(0.99 0 0 1 207.8501 375.7798)" font-family="'Menlo'" font-size="12">/work</text>
<text transform="matrix(0.99 0 0 1 71.2939 176.1821)" font-family="'Menlo'" font-size="12">/node/work2</text>
<text transform="matrix(1 0 0 1 203.6558 36.8115)" font-family="'Helvetica'" font-size="14" font-weight="bold">OWNED</text>
<text transform="matrix(1 0 0 1 465.7051 36.8115)" font-family="'Helvetica'" font-size="14" font-weight="bold">ALLOCATED</text>
<text transform="matrix(0 -1 1 0 32.8457 119.9644)" font-family="'Helvetica'" font-size="14" font-weight="bold">jobs</text>
<text transform="matrix(0 -1 1 0 32.8457 357.853)" font-family="'Helvetica'" font-size="14" font-weight="bold">storage</text>
<text transform="matrix(1 0 0 1 339.7539 423.7031)" font-family="'Helvetica'" font-size="14" font-weight="bold">RENTED</text>
<text transform="matrix(0.99 0 0 1 485.8291 101.8491)"><tspan x="0" y="0" font-family="'Menlo'" font-size="12">16 CPU</tspan><tspan x="-10.297" y="14.4" font-family="'Menlo'" font-size="12">64 GB RAM</tspan></text>
<text transform="matrix(0.99 0 0 1 485.8291 162.873)"><tspan x="0" y="0" font-family="'Menlo'" font-size="12">32 CPU</tspan><tspan x="-6.865" y="14.4" font-family="'Menlo'" font-size="12">1 TB RAM</tspan></text>
<text transform="matrix(0.99 0 0 1 181.8496 319.7969)"><tspan x="0" y="0" font-family="'Menlo'" font-size="9.5">/work/jobs/ID</tspan><tspan x="0" y="11.4" font-family="'Menlo'" font-size="9.5">(SLURM)</tspan></text>
<text transform="matrix(0.99 0 0 1 178.8496 293.2422)"><tspan x="0" y="0" font-family="'Menlo'" font-size="9.5">/work/users/NAME</tspan><tspan x="0" y="11.4" font-family="'Menlo'" font-size="9.5">(45 days)</tspan></text>
<text transform="matrix(0.99 0 0 1 318.6289 375.7798)" font-family="'Menlo'" font-size="12">/projects/cees</text>
<text transform="matrix(0.99 0 0 1 321.4238 315.2988)"><tspan x="0" y="0" font-family="'Menlo'" font-size="9.5">NOK 1600/TB/year</tspan><tspan x="0" y="11.4" font-family="'Menlo'" font-size="9.5">automatic backup</tspan></text>
<text transform="matrix(0.99 0 0 1 345.8125 295.9648)" font-family="'Menlo'" font-size="12">100 TB</text>
</svg>
